<svg xmlns="http://www.w3.org/2000/svg" width="19" height="18" fill="none" viewBox="0 0 19 18">
  <path fill="#A5B0CC" d="M8.17 11.625c.3.3.688.447 1.163.44.475-.006.825-.178 1.05-.515l3.17-4.744c.112-.175.096-.334-.048-.478-.144-.144-.303-.16-.478-.047L8.283 9.45c-.337.225-.515.569-.534 1.031-.019.463.122.844.422 1.144ZM4.159 15c-.262 0-.512-.063-.75-.188a1.423 1.423 0 0 1-.562-.524A7.447 7.447 0 0 1 1.833 10.5c0-1.038.197-2.01.591-2.917.394-.906.931-1.7 1.613-2.381a7.611 7.611 0 0 1 2.39-1.613A7.26 7.26 0 0 1 9.333 3c.563 0 1.107.06 1.632.178a6.98 6.98 0 0 1 1.518.534c.263.138.416.325.46.563.043.237-.022.462-.197.675a.654.654 0 0 1-.413.206.829.829 0 0 1-.468-.056 5.656 5.656 0 0 0-2.532-.6c-1.662 0-3.078.584-4.246 1.753-1.17 1.169-1.754 2.585-1.754 4.247 0 .525.072 1.044.216 1.556.144.513.347.994.61 1.444h10.35c.287-.475.496-.969.628-1.481a6.41 6.41 0 0 0 .196-1.594 5.21 5.21 0 0 0-.159-1.284 5.68 5.68 0 0 0-.46-1.21.72.72 0 0 1-.074-.506.743.743 0 0 1 .262-.431c.2-.175.419-.225.656-.15a.842.842 0 0 1 .525.487 7.803 7.803 0 0 1 .75 3.056c0 .713-.084 1.394-.252 2.044a7.5 7.5 0 0 1-.76 1.857c-.138.224-.325.4-.563.524a1.588 1.588 0 0 1-.75.188H4.158Z"/>
</svg>
