<svg xmlns="http://www.w3.org/2000/svg" width="17" height="16" fill="none" viewBox="0 0 17 16">
  <g clip-path="url(#a)">
    <path fill="#A5B0CC" d="M8.667 12a4 4 0 1 0 0-8 4 4 0 0 0 0 8Zm0-12a.5.5 0 0 1 .5.5v2a.5.5 0 1 1-1 0v-2a.5.5 0 0 1 .5-.5Zm0 13a.5.5 0 0 1 .5.5v2a.5.5 0 0 1-1 0v-2a.5.5 0 0 1 .5-.5Zm8-5a.5.5 0 0 1-.5.5h-2a.5.5 0 1 1 0-1h2a.5.5 0 0 1 .5.5Zm-13 0a.5.5 0 0 1-.5.5h-2a.5.5 0 0 1 0-1h2a.5.5 0 0 1 .5.5Zm10.657-5.657a.5.5 0 0 1 0 .707L12.91 4.465a.5.5 0 1 1-.707-.708l1.414-1.414a.5.5 0 0 1 .707 0ZM5.13 11.536a.5.5 0 0 1 0 .707l-1.414 1.414a.5.5 0 0 1-.707-.707l1.414-1.414a.5.5 0 0 1 .707 0Zm9.193 2.121a.5.5 0 0 1-.707 0l-1.414-1.414a.5.5 0 0 1 .707-.707l1.414 1.414a.5.5 0 0 1 0 .707ZM5.13 4.465a.5.5 0 0 1-.707 0L3.01 3.05a.5.5 0 1 1 .707-.707L5.13 3.757a.5.5 0 0 1 0 .708Z"/>
  </g>
  <defs>
    <clipPath id="a">
      <path fill="#fff" d="M0 0h16v16H0z" transform="translate(.667)"/>
    </clipPath>
  </defs>
</svg>
