<svg width="0" height="0" class="hidden">
  <symbol xmlns="http://www.w3.org/2000/svg" fill="none" viewBox="0 0 16 16" id="icon-sunrise">
    <g clip-path="url(#a)">
      <path fill="#A5B0CC" d="M7.646 1.146a.5.5 0 0 1 .708 0l1.5 1.5a.5.5 0 0 1-.708.708L8.5 2.707V4.5a.5.5 0 0 1-1 0V2.707l-.646.647a.5.5 0 0 1-.708-.708l1.5-1.5ZM2.343 4.343a.5.5 0 0 1 .707 0l1.414 1.414a.5.5 0 0 1-.707.707L2.343 5.05a.5.5 0 0 1 0-.707Zm11.314 0a.5.5 0 0 1 0 .707l-1.414 1.414a.5.5 0 1 1-.707-.707l1.414-1.414a.5.5 0 0 1 .707 0ZM11.709 11.5a3.999 3.999 0 1 0-7.418 0H.5a.5.5 0 0 0 0 1h15a.5.5 0 0 0 0-1h-3.791ZM0 10a.5.5 0 0 1 .5-.5h2a.5.5 0 1 1 0 1h-2A.5.5 0 0 1 0 10Zm13 0a.5.5 0 0 1 .5-.5h2a.5.5 0 0 1 0 1h-2a.5.5 0 0 1-.5-.5Z"></path>
    </g>
    <defs>
      <clipPath id="a">
        <path fill="#fff" d="M0 0h16v16H0z"></path>
      </clipPath>
    </defs>
  </symbol>
  <symbol xmlns="http://www.w3.org/2000/svg" fill="none" viewBox="0 0 17 16" id="icon-uv-index">
    <g clip-path="url(#a)">
      <path fill="#A5B0CC" d="M8.667 12a4 4 0 1 0 0-8 4 4 0 0 0 0 8Zm0-12a.5.5 0 0 1 .5.5v2a.5.5 0 1 1-1 0v-2a.5.5 0 0 1 .5-.5Zm0 13a.5.5 0 0 1 .5.5v2a.5.5 0 0 1-1 0v-2a.5.5 0 0 1 .5-.5Zm8-5a.5.5 0 0 1-.5.5h-2a.5.5 0 1 1 0-1h2a.5.5 0 0 1 .5.5Zm-13 0a.5.5 0 0 1-.5.5h-2a.5.5 0 0 1 0-1h2a.5.5 0 0 1 .5.5Zm10.657-5.657a.5.5 0 0 1 0 .707L12.91 4.465a.5.5 0 1 1-.707-.708l1.414-1.414a.5.5 0 0 1 .707 0ZM5.13 11.536a.5.5 0 0 1 0 .707l-1.414 1.414a.5.5 0 0 1-.707-.707l1.414-1.414a.5.5 0 0 1 .707 0Zm9.193 2.121a.5.5 0 0 1-.707 0l-1.414-1.414a.5.5 0 0 1 .707-.707l1.414 1.414a.5.5 0 0 1 0 .707ZM5.13 4.465a.5.5 0 0 1-.707 0L3.01 3.05a.5.5 0 1 1 .707-.707L5.13 3.757a.5.5 0 0 1 0 .708Z"></path>
    </g>
    <defs>
      <clipPath id="a">
        <path fill="#fff" d="M0 0h16v16H0z" transform="translate(.667)"></path>
      </clipPath>
    </defs>
  </symbol>
  <symbol xmlns="http://www.w3.org/2000/svg" fill="none" viewBox="0 0 15 16" id="icon-wind">
    <path fill="#A5B0CC" d="M7.667 3.667a2.336 2.336 0 0 0-2.334-2.334c-1.356 0-2.166 1.017-2.166 2H4.5c0-.276.259-.666.833-.666a1.001 1.001 0 0 1 0 2h-5V6h5a2.336 2.336 0 0 0 2.334-2.333ZM9.333 10h-5v1.333h5a1.001 1.001 0 0 1 0 2c-.574 0-.833-.39-.833-.666H7.167c0 .983.81 2 2.166 2a2.336 2.336 0 0 0 2.334-2.334A2.336 2.336 0 0 0 9.333 10Z"></path>
    <path fill="#A5B0CC" d="M11 3.333A2.67 2.67 0 0 0 8.333 6h1.334c0-.735.598-1.333 1.333-1.333s1.333.598 1.333 1.333S11.735 7.333 11 7.333H.333v1.334H11A2.67 2.67 0 0 0 13.667 6 2.67 2.67 0 0 0 11 3.333ZM.333 10H3v1.333H.333V10Z"></path>
  </symbol>
  <symbol xmlns="http://www.w3.org/2000/svg" fill="none" viewBox="0 0 48 48" id="icon-air">
    <path stroke="#17B784" stroke-linecap="round" stroke-linejoin="round" stroke-width="4" d="M6 16h14a6 6 0 1 0-6-6M8 32h22a6 6 0 1 1-6 6M4 24h34a6 6 0 1 0-6-6"></path>
  </symbol>
  <symbol xmlns="http://www.w3.org/2000/svg" fill="none" viewBox="0 0 15 16" id="icon-feels-like">
    <path fill="#A5B0CC" d="M9 5h3.5v1H9V5Zm0 3h5v1H9V8Zm0 3h3.5v1H9v-1Zm-5-.908V3.5H3v6.592a1.5 1.5 0 1 0 1 0Z"></path>
    <path fill="#A5B0CC" d="M14 2H5.487A2.491 2.491 0 0 0 1 3.5v5.555a3.5 3.5 0 1 0 5 0V3.5a2.5 2.5 0 0 0-.05-.5H14V2ZM3.5 14a2.497 2.497 0 0 1-1.666-4.359L2 9.491V3.5a1.5 1.5 0 0 1 3 0v5.992l.166.149A2.497 2.497 0 0 1 3.5 14Z"></path>
  </symbol>
  <symbol xmlns="http://www.w3.org/2000/svg" fill="none" viewBox="0 0 16 16" id="icon-humidity">
    <path fill="#A5B0CC" d="M12.738 6.997 9.424 1.718a.52.52 0 0 0-.848 0L5.247 7.021A4.993 4.993 0 0 0 4.5 9.5a4.5 4.5 0 1 0 9 0 5.03 5.03 0 0 0-.762-2.503ZM9 13a3.505 3.505 0 0 1-3.5-3.5c.027-.7.237-1.38.609-1.971l.468-.745 5.037 5.036A3.49 3.49 0 0 1 9 13Z"></path>
  </symbol>
  <symbol xmlns="http://www.w3.org/2000/svg" fill="none" viewBox="0 0 16 16" id="icon-percipitation">
    <g clip-path="url(#a)">
      <path fill="#A5B0CC" fill-rule="evenodd" d="M8 0a.5.5 0 0 1 .5.5v.514C12.625 1.238 16 4.22 16 8c0 0 0 .5-.5.5-.149 0-.352-.145-.352-.145l-.004-.004-.025-.023a3.485 3.485 0 0 0-.555-.394A3.166 3.166 0 0 0 13 7.5c-.638 0-1.178.213-1.564.434a3.485 3.485 0 0 0-.555.394l-.025.023-.003.003s-.204.146-.353.146-.352-.145-.352-.145l-.004-.004-.025-.023a3.484 3.484 0 0 0-.555-.394 3.3 3.3 0 0 0-1.064-.39V13.5H8h.5v.039l-.005.083a2.958 2.958 0 0 1-.298 1.102 2.257 2.257 0 0 1-.763.88C7.06 15.851 6.587 16 6 16s-1.061-.148-1.434-.396a2.255 2.255 0 0 1-.763-.88 2.958 2.958 0 0 1-.302-1.185v-.025l-.001-.009v-.003s0-.002.5-.002h-.5V13a.5.5 0 0 1 1 0v.506l.003.044c.018.252.084.499.195.726.095.191.23.367.423.495.19.127.466.229.879.229s.689-.102.879-.229c.193-.128.328-.304.424-.495.118-.24.185-.503.197-.77V7.544a3.3 3.3 0 0 0-1.064.39 3.482 3.482 0 0 0-.58.417l-.004.004S5.65 8.5 5.5 8.5c-.149 0-.352-.145-.352-.145l-.004-.004a3.482 3.482 0 0 0-.58-.417A3.166 3.166 0 0 0 3 7.5c-.638 0-1.177.213-1.564.434a3.482 3.482 0 0 0-.58.417l-.004.004S.65 8.5.5 8.5C0 8.5 0 8 0 8c0-3.78 3.375-6.762 7.5-6.986V.5A.5.5 0 0 1 8 0Z" clip-rule="evenodd"></path>
    </g>
    <defs>
      <clipPath id="a">
        <path fill="#fff" d="M0 0h16v16H0z"></path>
      </clipPath>
    </defs>
  </symbol>
  <symbol xmlns="http://www.w3.org/2000/svg" fill="none" viewBox="0 0 19 18" id="icon-pressure">
    <path fill="#A5B0CC" d="M8.17 11.625c.3.3.688.447 1.163.44.475-.006.825-.178 1.05-.515l3.17-4.744c.112-.175.096-.334-.048-.478-.144-.144-.303-.16-.478-.047L8.283 9.45c-.337.225-.515.569-.534 1.031-.019.463.122.844.422 1.144ZM4.159 15c-.262 0-.512-.063-.75-.188a1.423 1.423 0 0 1-.562-.524A7.447 7.447 0 0 1 1.833 10.5c0-1.038.197-2.01.591-2.917.394-.906.931-1.7 1.613-2.381a7.611 7.611 0 0 1 2.39-1.613A7.26 7.26 0 0 1 9.333 3c.563 0 1.107.06 1.632.178a6.98 6.98 0 0 1 1.518.534c.263.138.416.325.46.563.043.237-.022.462-.197.675a.654.654 0 0 1-.413.206.829.829 0 0 1-.468-.056 5.656 5.656 0 0 0-2.532-.6c-1.662 0-3.078.584-4.246 1.753-1.17 1.169-1.754 2.585-1.754 4.247 0 .525.072 1.044.216 1.556.144.513.347.994.61 1.444h10.35c.287-.475.496-.969.628-1.481a6.41 6.41 0 0 0 .196-1.594 5.21 5.21 0 0 0-.159-1.284 5.68 5.68 0 0 0-.46-1.21.72.72 0 0 1-.074-.506.743.743 0 0 1 .262-.431c.2-.175.419-.225.656-.15a.842.842 0 0 1 .525.487 7.803 7.803 0 0 1 .75 3.056c0 .713-.084 1.394-.252 2.044a7.5 7.5 0 0 1-.76 1.857c-.138.224-.325.4-.563.524a1.588 1.588 0 0 1-.75.188H4.158Z"></path>
  </symbol>
</svg>