<svg xmlns="http://www.w3.org/2000/svg" width="15" height="16" fill="none" viewBox="0 0 15 16">
  <path fill="#A5B0CC" d="M7.667 3.667a2.336 2.336 0 0 0-2.334-2.334c-1.356 0-2.166 1.017-2.166 2H4.5c0-.276.259-.666.833-.666a1.001 1.001 0 0 1 0 2h-5V6h5a2.336 2.336 0 0 0 2.334-2.333ZM9.333 10h-5v1.333h5a1.001 1.001 0 0 1 0 2c-.574 0-.833-.39-.833-.666H7.167c0 .983.81 2 2.166 2a2.336 2.336 0 0 0 2.334-2.334A2.336 2.336 0 0 0 9.333 10Z"/>
  <path fill="#A5B0CC" d="M11 3.333A2.67 2.67 0 0 0 8.333 6h1.334c0-.735.598-1.333 1.333-1.333s1.333.598 1.333 1.333S11.735 7.333 11 7.333H.333v1.334H11A2.67 2.67 0 0 0 13.667 6 2.67 2.67 0 0 0 11 3.333ZM.333 10H3v1.333H.333V10Z"/>
</svg>
